<svg width="42" height="42" viewBox="0 0 42 42" fill="none" xmlns="http://www.w3.org/2000/svg">
<path d="M32.8846 19.2585H13.3371L21.8771 10.7185C22.5596 10.036 22.5596 8.91603 21.8771 8.23353C21.5502 7.90584 21.1063 7.72168 20.6434 7.72168C20.1805 7.72168 19.7366 7.90584 19.4096 8.23353L7.87711 19.766C7.19461 20.4485 7.19461 21.551 7.87711 22.2335L19.4096 33.766C20.0921 34.4485 21.1946 34.4485 21.8771 33.766C22.5596 33.0835 22.5596 31.981 21.8771 31.2985L13.3371 22.7585H32.8846C33.8471 22.7585 34.6346 21.971 34.6346 21.0085C34.6346 20.046 33.8471 19.2585 32.8846 19.2585Z" fill="white"/>
</svg>
