<svg width="42" height="42" viewBox="0 0 42 42" fill="none" xmlns="http://www.w3.org/2000/svg">
<path d="M36.1612 32.8492C36.1612 32.8492 34.1335 34.8407 33.6366 35.4245C32.8272 36.2883 31.8734 36.6962 30.6232 36.6962C30.503 36.6962 30.3747 36.6962 30.2545 36.6882C27.8742 36.5363 25.6622 35.6085 24.0032 34.8167C19.467 32.6252 15.4839 29.5139 12.1739 25.5709C9.44094 22.2837 7.61364 19.2444 6.40346 15.9812C5.65811 13.9896 5.38562 12.438 5.50584 10.9744C5.58598 10.0386 5.94663 9.26277 6.61183 8.59893L9.34477 5.87158C9.73748 5.50366 10.1542 5.30371 10.563 5.30371C11.0679 5.30371 11.4766 5.60764 11.7331 5.86358C11.7411 5.87158 11.7491 5.87957 11.7571 5.88757C12.246 6.34346 12.7108 6.81535 13.1997 7.31923C13.4482 7.57517 13.7046 7.83111 13.9611 8.09505L16.1491 10.2785C16.9986 11.1263 16.9986 11.9101 16.1491 12.7579C15.9166 12.9899 15.6922 13.2218 15.4598 13.4458C14.7866 14.1336 15.3154 13.6058 14.6182 14.2297C14.6022 14.2457 14.5861 14.2537 14.5781 14.2697C13.8889 14.9575 14.0171 15.6294 14.1614 16.0852C14.1694 16.1092 14.1774 16.1332 14.1854 16.1572C14.7544 17.5329 15.5559 18.8286 16.7741 20.3722L16.7821 20.3802C18.9941 23.0996 21.3263 25.2191 23.8989 26.8427C24.2275 27.0506 24.5641 27.2186 24.8847 27.3786C25.1732 27.5225 25.4457 27.6585 25.6782 27.8025C25.7102 27.8185 25.7423 27.8424 25.7743 27.8584C26.0468 27.9944 26.3033 28.0584 26.5678 28.0584C27.233 28.0584 27.6497 27.6425 27.786 27.5065L29.3569 25.9388C29.6294 25.6669 30.0622 25.3389 30.5671 25.3389C31.064 25.3389 31.4727 25.6509 31.7212 25.9228C31.7292 25.9308 31.7292 25.9308 31.7372 25.9388L36.1532 30.3457C36.9787 31.1616 36.1612 32.8492 36.1612 32.8492Z" stroke="white" stroke-width="2" stroke-linecap="round" stroke-linejoin="round"/>
</svg>
