<svg width="42" height="42" viewBox="0 0 42 42" fill="none" xmlns="http://www.w3.org/2000/svg">
<path d="M9.11523 22.7502H28.6627L20.1227 31.2902C19.4402 31.9727 19.4402 33.0927 20.1227 33.7752C20.8052 34.4577 21.9077 34.4577 22.5902 33.7752L34.1227 22.2427C34.8052 21.5602 34.8052 20.4577 34.1227 19.7752L22.6077 8.22523C22.2808 7.89754 21.8369 7.71338 21.374 7.71338C20.9111 7.71338 20.4672 7.89754 20.1402 8.22523C19.4577 8.90773 19.4577 10.0102 20.1402 10.6927L28.6627 19.2502H9.11523C8.15273 19.2502 7.36523 20.0377 7.36523 21.0002C7.36523 21.9627 8.15273 22.7502 9.11523 22.7502Z" fill="white"/>
</svg>
